<?xml version="1.0" encoding="UTF-8" standalone="no"?>
<svg
   version="1.1"
   id="Layer_1"
   x="0px"
   y="0px"
   viewBox="0 0 80.000003 80.000002"
   xml:space="preserve"
   sodipodi:docname="ucsf_logo_white_on_navy.svg"
   width="80"
   height="80"
   inkscape:version="1.4.3 (0d15f75042, 2025-12-25)"
   xmlns:inkscape="http://www.inkscape.org/namespaces/inkscape"
   xmlns:sodipodi="http://sodipodi.sourceforge.net/DTD/sodipodi-0.dtd"
   xmlns="http://www.w3.org/2000/svg"
   xmlns:svg="http://www.w3.org/2000/svg"><defs
   id="defs1" /><sodipodi:namedview
   id="namedview1"
   pagecolor="#ffffff"
   bordercolor="#666666"
   borderopacity="1.0"
   inkscape:showpageshadow="2"
   inkscape:pageopacity="0.0"
   inkscape:pagecheckerboard="0"
   inkscape:deskcolor="#d1d1d1"
   inkscape:zoom="6.6842284"
   inkscape:cx="41.889652"
   inkscape:cy="24.610171"
   inkscape:window-width="1920"
   inkscape:window-height="1000"
   inkscape:window-x="0"
   inkscape:window-y="0"
   inkscape:window-maximized="1"
   inkscape:current-layer="Layer_1" />
<rect
   width="80"
   height="80"
   fill="#052049"
   id="rect1"
   x="0"
   y="0" />
<style
   type="text/css"
   id="style1">
	.st0{fill:white;}
</style>
<path
   class="st0"
   d="M 80,37.5 V 32.7 H 61.7 v 17.7 c -0.1,-2.1 -0.9,-3.7 -2.3,-4.8 -1,-0.8 -2.5,-1.4 -4.5,-1.9 L 50.4,42.6 C 48.6,42.2 47.5,41.8 47,41.5 46.5,41.3 46.1,40.9 46,40.4 v 0 0 0 c -0.2,-0.3 -0.2,-0.6 -0.2,-1 0,-0.8 0.3,-1.5 0.9,-2 v 0 0 0 0 c 0.2,-0.1 0.2,-0.2 0.4,-0.3 0.9,-0.5 2,-0.9 3.4,-0.9 1.3,0 2.3,0.2 3.2,0.6 1.3,0.6 2,1.8 2.1,3.3 h 5.1 c -0.1,-2.7 -1.1,-4.8 -3,-6.3 -1.9,-1.5 -4.3,-2.2 -7.1,-2.2 -3.3,0 -5.8,0.8 -7.6,2.3 -1,0.9 -1.8,2 -2.2,3.3 v 0 c -0.1,0.2 -0.2,0.5 -0.2,0.9 v 0 c -0.6,3 -2.6,5 -5.8,5 -5.1,0 -7.1,-4.4 -7.1,-8.7 0,-4.6 1.9,-9 7.1,-9 2.9,0 5.3,1.9 5.7,4.6 h 5.5 C 45.5,24 40.7,20.7 35,20.7 c -7.7,0 -12.4,5.5 -12.8,12.7 v -12 h -5.8 v 16.2 c 0,3.9 -1.3,5.7 -5.4,5.7 -4.7,0 -5.4,-2.8 -5.4,-5.7 V 21.4 H 0 v 16.2 c 0,7.1 4.1,10.5 11.1,10.5 7,0 11.1,-3.4 11.1,-10.5 v -2 c 0.4,7 5.1,12.5 12.8,12.5 3.2,0 5.8,-1 7.9,-2.8 0.2,0.1 0.2,0.2 0.4,0.3 1,0.7 3,1.4 5.7,2 l 2.8,0.6 c 1.6,0.4 2.8,0.8 3.6,1.2 0.8,0.5 1.2,1.2 1.2,2 0,1.5 -0.8,2.5 -2.3,3 -0.8,0.3 -1.9,0.4 -3.2,0.4 -2.2,0 -3.7,-0.5 -4.6,-1.6 -0.5,-0.6 -0.9,-1.5 -1,-2.6 h -5.1 c 0,2.7 1,4.8 3,6.4 1.9,1.6 4.7,2.3 8,2.3 3.3,0 5.9,-0.8 7.8,-2.3 1.7,-1.4 2.6,-3.2 2.7,-5.4 v 7.3 h 5.8 v -11 H 78.6 V 43.5 H 67.5 v -6 z"
   id="path1" />
</svg>
